<?xml version="1.0" encoding="UTF-8" standalone="no"?>
<svg width="24px" height="20px" viewBox="0 0 24 20" version="1.1" xmlns="http://www.w3.org/2000/svg" xmlns:xlink="http://www.w3.org/1999/xlink">
    <!-- Generator: Sketch 39.1 (31720) - http://www.bohemiancoding.com/sketch -->
    <title>Page 1</title>
    <desc>Created with Sketch.</desc>
    <defs></defs>
    <g id="Site" stroke="none" stroke-width="1" fill="none" fill-rule="evenodd">
        <g id="Intro" transform="translate(-1245.000000, -428.000000)" fill="#FFFFFF">
            <g id="Btn-Play" transform="translate(1217.000000, 398.000000)">
                <path d="M44.296,46 L40,43.125 L35.704,46 L37,40.85 L33.052,37.488 L38.14,37.175 L40,32.25 L41.848,37.187 L46.936,37.5 L42.988,40.863 L44.296,46 M49.6,40 C49.6,38.625 50.68,37.5 52,37.5 L52,32.5 C52,31.125 50.92,30 49.6,30 L30.4,30 C29.08,30 28.012,31.125 28.012,32.5 L28.012,37.5 C29.332,37.5 30.4,38.625 30.4,40 C30.4,41.375 29.332,42.5 28,42.5 L28,47.5 C28,48.875 29.08,50 30.4,50 L49.6,50 C50.92,50 52,48.875 52,47.5 L52,42.5 C50.68,42.5 49.6,41.375 49.6,40" id="Page-1"></path>
            </g>
        </g>
    </g>
</svg>