<svg id="Capa_1" data-name="Capa 1" xmlns="http://www.w3.org/2000/svg" viewBox="0 0 141.73 141.73"><defs><style>.cls-1{fill:#e04b63;}.cls-2{fill:#2c5ea5;}.cls-3{fill:none;}</style></defs><title>logo_polymerday_imagotipo</title><path class="cls-1" d="M22.54,25.63a3.94,3.94,0,0,0-2.94,1.32,4.37,4.37,0,0,0-1.26,3.11,4.45,4.45,0,0,0,1.26,3.3,4,4,0,0,0,2.94,1.26A4.4,4.4,0,0,0,27,30.06,4.5,4.5,0,0,0,22.54,25.63Z"/><path class="cls-2" d="M76.78,40.49A19.16,19.16,0,0,0,64,28.44a31.67,31.67,0,0,0-9.47-1.38h-22a2.11,2.11,0,0,0-1.74.83A3.3,3.3,0,0,0,30.18,30a3.07,3.07,0,0,0,.66,2.07,2.15,2.15,0,0,0,1.74.74H54.43q8.63,0,13.42,4.67t4.79,14.74v1.32q0,10.06-4.79,14.8T54.43,73.08h-19a5.27,5.27,0,0,0-5.25,5.3V112a2.23,2.23,0,0,0,1,2,3.52,3.52,0,0,0,2,.66,3.44,3.44,0,0,0,2.1-.66,2.28,2.28,0,0,0,.9-2V78.6H54.43a31.67,31.67,0,0,0,9.46-1.38A19.5,19.5,0,0,0,76.78,65.06a32.24,32.24,0,0,0,1.86-11.63V52.11A32.25,32.25,0,0,0,76.78,40.49Z"/><path class="cls-2" d="M71.15,116.11a3.94,3.94,0,0,1-2.94-1.32A4.37,4.37,0,0,1,67,111.68a4.45,4.45,0,0,1,1.26-3.3,4,4,0,0,1,2.94-1.26,4.4,4.4,0,0,1,4.43,4.55A4.5,4.5,0,0,1,71.15,116.11Z"/><path class="cls-1" d="M121.53,40.61a19.5,19.5,0,0,0-12.88-12.16,31.68,31.68,0,0,0-9.47-1.38h-18a2.15,2.15,0,0,0-1.74.74,3.07,3.07,0,0,0-.66,2.07A3.3,3.3,0,0,0,79.45,32a2.11,2.11,0,0,0,1.74.83h18q8.63,0,13.42,4.67t4.79,14.74V89.5q0,10.06-4.79,14.74t-13.42,4.67h-18a2.15,2.15,0,0,0-1.74.74,3.07,3.07,0,0,0-.66,2.07,3.3,3.3,0,0,0,.66,2.12,2.11,2.11,0,0,0,1.74.83h18a31.68,31.68,0,0,0,9.47-1.38,19.5,19.5,0,0,0,12.88-12.16,32.24,32.24,0,0,0,1.86-11.63V52.23A32.25,32.25,0,0,0,121.53,40.61Z"/><rect class="cls-3" width="141.73" height="141.73"/></svg>