<svg width="99" height="16" viewBox="0 0 99 16" xmlns="http://www.w3.org/2000/svg"><title>eventbrite</title><g fill="#F6682F" fill-rule="evenodd"><path d="M57.577 10.517v2.358c0 .34.077.434.41.51.655.15 1.314.186 1.975.046 1.16-.245 1.94-.913 2.27-2.06.158-.553.21-1.12.114-1.693-.14-.84-.55-1.508-1.298-1.925-1.077-.6-2.163-.5-3.24.026-.174.085-.238.208-.235.404.01.778.004 1.556.004 2.335M54.765 7.75V.813c0-.38.02-.4.4-.43.332-.028.665-.028.988.067.73.216 1.153.723 1.32 1.443.066.275.094.563.1.846.012.754.003 1.51.004 2.265 0 .303.023.316.3.202.643-.264 1.317-.372 2.01-.387.84-.017 1.65.11 2.42.446 1.466.64 2.382 1.756 2.776 3.29.306 1.188.263 2.384-.092 3.558-.507 1.675-1.622 2.784-3.266 3.37-.763.273-1.554.395-2.362.42-1.387.042-2.743-.134-4.066-.553-.512-.16-.53-.185-.53-.71V7.75M0 9.518C0 7.683 0 5.848.005 4.014c0-.245.01-.497.07-.733.265-1.08 1.24-1.728 2.14-1.746.084 0 .17-.004.254-.004h6.17c.372 0 .373 0 .373.37v1.965c0 .07 0 .138-.006.207-.007.08-.056.126-.136.13-.078.004-.155.004-.232.004H3.37c-.416 0-.447.032-.448.448v2.174c0 .06-.002.123.004.185.016.173.072.233.243.25.084.007.17.004.254.004h4.57c.367 0 .367 0 .367.375.002.625.002 1.25 0 1.873 0 .07 0 .14-.004.208-.006.1-.06.156-.162.16-.06.002-.123.002-.185.002H3.37c-.07 0-.14-.003-.21 0-.148.01-.21.064-.23.206-.01.054-.007.11-.007.163v2.313c0 .053-.002.108.005.16.02.148.075.205.22.224.085.01.17.007.256.007h5.45c.364 0 .392.026.418.388.023.31.026.617-.06.918-.2.716-.69 1.134-1.4 1.3-.267.065-.55.1-.825.1-2.227.008-4.453.005-6.68.005-.047 0-.093 0-.14-.002-.103-.002-.155-.06-.16-.16C0 15.424 0 15.34 0 15.254V9.518M94.14 9.458h1.924c.248-.002.31-.068.282-.305-.022-.183-.05-.367-.097-.545-.156-.585-.46-1.07-1.042-1.306-.786-.318-1.545-.245-2.237.264-.43.317-.684.765-.86 1.26-.048.138-.087.28-.117.422-.026.123.028.188.155.205.06.008.123.004.185.005h1.808m1.02 1.672H92.214c-.233.008-.294.077-.24.302.092.398.28.75.556 1.05.485.526 1.1.81 1.79.952.764.155 1.523.07 2.278-.07.557-.1 1.09-.28 1.608-.508.237-.104.282-.09.397.14.38.772.296 1.712-.595 2.26-.456.28-.962.41-1.48.507-.75.14-1.506.18-2.263.133-1.008-.064-1.965-.317-2.826-.867-1.038-.663-1.712-1.6-2.027-2.777-.41-1.528-.338-3.045.31-4.497.753-1.68 2.075-2.642 3.907-2.887.788-.106 1.573-.067 2.343.14 1.13.306 1.937.994 2.43 2.05.306.656.46 1.353.524 2.07.03.345.034.693.057 1.038.043.663-.432.972-.948.966-.96-.012-1.918-.004-2.876-.004M26.77 9.458h1.9c.268-.002.334-.07.293-.338-.034-.227-.074-.457-.144-.675-.18-.556-.52-.984-1.085-1.184-.685-.24-1.36-.197-1.98.192-.664.416-.975 1.07-1.143 1.805-.025.113.03.176.143.195.06.01.123.005.185.005h1.83m1.008 1.674h-2.783c-.062 0-.124 0-.186.002-.205.01-.268.077-.22.28.04.162.096.325.166.478.227.492.595.858 1.062 1.127.72.414 1.503.538 2.323.486.952-.06 1.862-.276 2.73-.666.18-.08.23-.065.32.1.41.748.35 1.68-.448 2.242-.406.284-.867.43-1.346.535-.836.18-1.684.232-2.535.18-.76-.046-1.497-.212-2.192-.535-1.348-.628-2.236-1.66-2.627-3.086-.428-1.567-.342-3.12.344-4.603.7-1.516 1.9-2.437 3.548-2.752.9-.173 1.8-.14 2.686.1 1.12.305 1.92.995 2.406 2.042.303.65.458 1.34.52 2.05.033.367.034.738.06 1.107.035.54-.362.92-.927.915-.966-.007-1.933-.002-2.9 0M33.516 10.69V6.18c0-.07-.002-.14 0-.208.006-.216.023-.254.23-.32.396-.125.793-.255 1.197-.356 1.378-.348 2.776-.528 4.2-.465.596.027 1.183.12 1.747.324 1.095.397 1.77 1.17 2.067 2.286.13.488.18.987.18 1.487.008 2.19.004 4.38.004 6.568 0 .054 0 .108-.002.162-.007.105-.063.174-.167.194-.576.112-1.14.086-1.664-.205-.5-.275-.78-.72-.903-1.258-.065-.283-.097-.58-.1-.87-.01-1.425 0-2.85-.006-4.278 0-.215-.02-.434-.066-.642-.153-.682-.595-1.09-1.28-1.2-.354-.058-.724-.068-1.083-.04-.405.032-.808.12-1.208.204-.293.062-.336.133-.336.433v7.285c0 .388 0 .388-.38.388h-2.04c-.388 0-.388 0-.388-.376V10.69M15.836 15.668h-1.438c-.24 0-.247-.005-.335-.235l-2.536-6.6c-.408-1.064-.816-2.13-1.225-3.193-.02-.05-.04-.1-.058-.15-.043-.117-.018-.21.09-.28.807-.51 2.07-.672 2.85.42.197.278.347.58.46.902l2.03 5.824c.03.08.05.164.09.238.025.048.074.096.124.112.02.007.08-.06.103-.102.037-.067.058-.143.083-.215l2.454-7.024c.018-.05.037-.1.054-.152.037-.11.11-.158.228-.155.185.003.37 0 .556 0h1.833c.06 0 .125-.005.185.005.1.017.15.08.126.182-.016.067-.045.13-.07.196l-3.818 9.97c-.096.248-.106.254-.37.255h-1.414M81.647 10.53c0-.747.006-1.495-.002-2.243-.005-.538-.374-.893-.91-.9h-.14c-.615-.005-.564.082-.565-.574V5.38c0-.303.017-.32.31-.32.318-.002.635 0 .952 0 .3-.003.354-.054.355-.35.002-.677 0-1.356 0-2.034 0-.062.003-.124 0-.185-.002-.114.057-.17.168-.175.054-.003.108-.004.162-.004h2.135c.046 0 .093 0 .14.003.167.013.197.04.2.215.003.37 0 .74 0 1.11v1.064c.003.31.05.356.37.357h2.296c.054 0 .11-.002.163 0 .187.008.222.044.228.238.002.047 0 .093 0 .14v1.55c0 .4 0 .4-.39.4h-2.274c-.062 0-.124 0-.185.004-.12.01-.182.08-.2.19-.01.06-.007.124-.007.185 0 1.318-.007 2.637.005 3.955.002.258.05.522.12.77.133.46.47.71.93.8.484.096.955.024 1.418-.115.184-.056.362-.134.54-.207.227-.092.297-.075.404.148.385.797.273 1.706-.59 2.272-.397.26-.842.387-1.305.453-.67.094-1.34.082-2.002-.08-1.298-.314-2.15-1.272-2.276-2.6-.045-.474-.04-.953-.048-1.43-.008-.4-.002-.802-.002-1.203zM46.29 10.45c0-.71-.017-1.42.005-2.127.016-.524-.4-.974-.945-.936-.115.008-.23 0-.347 0-.3 0-.306-.007-.308-.315v-.717c0-.347-.002-.694 0-1.04.004-.234.024-.253.253-.255.294-.002.588 0 .882 0 .46 0 .46 0 .46-.47V2.6c0-.267.02-.288.29-.288.742-.002 1.485-.002 2.227 0 .276 0 .292.016.293.285.002.67 0 1.34 0 2.012 0 .423.028.45.442.45h2.273c.062 0 .124 0 .186.002.092.004.147.053.147.145.002.67.002 1.34 0 2.012 0 .112-.067.165-.177.167h-2.46c-.06 0-.124-.002-.185.004-.136.014-.192.064-.214.2-.01.068-.01.138-.01.207 0 1.288 0 2.576.002 3.863 0 .277.03.553.118.82.152.464.474.726.947.814.54.102 1.06.006 1.572-.17.137-.048.27-.11.406-.165.188-.076.25-.06.344.107.35.624.39 1.58-.382 2.194-.34.27-.73.432-1.15.52-.88.18-1.752.18-2.61-.1-1.103-.36-1.74-1.135-1.96-2.254-.067-.337-.087-.688-.095-1.033-.014-.647-.004-1.295-.004-1.943M67.058 10.69c0-1.526.005-3.052-.006-4.578-.002-.265.09-.406.333-.506.81-.336 1.648-.565 2.516-.69.593-.085 1.186-.113 1.78-.086.374.017.74.085 1.082.234.65.282 1.003.772 1.025 1.487.01.35-.028.693-.15 1.023-.07.193-.11.21-.31.15-.824-.25-1.666-.327-2.52-.234-.244.026-.486.09-.725.15-.177.046-.205.095-.21.28-.003.07 0 .14 0 .21 0 2.35-.004 4.7 0 7.053.002.577-.05.483-.476.484-.672.003-1.345 0-2.018 0-.31 0-.32-.007-.32-.328V10.69M78.32 10.45v5.063c0 .29-.013.322-.297.364-.497.073-.986.04-1.446-.19-.586-.294-.882-.8-1.002-1.42-.045-.23-.063-.472-.063-.71-.004-2.72-.003-5.44-.003-8.16 0-.337 0-.338.33-.338h2.134c.06 0 .124-.002.185.003.1.007.153.065.158.164.004.07.002.138.002.208v5.016M76.898.097c.838-.025 1.7.655 1.695 1.71-.005 1.04-.9 1.665-1.7 1.662-.822-.003-1.687-.64-1.69-1.667C75.2.76 76.038.07 76.898.097"/></g></svg>