<?xml version="1.0" encoding="UTF-8" standalone="no"?>
<svg width="99px" height="16px" viewBox="0 0 99 16" version="1.1" xmlns="http://www.w3.org/2000/svg" xmlns:xlink="http://www.w3.org/1999/xlink">
    <!-- Generator: Sketch 39.1 (31720) - http://www.bohemiancoding.com/sketch -->
    <title>eventbrite</title>
    <desc>Created with Sketch.</desc>
    <defs></defs>
    <g id="Site" stroke="none" stroke-width="1" fill="none" fill-rule="evenodd">
        <g id="Intro" transform="translate(-138.000000, -996.000000)" fill="#F6682F">
            <g id="Footer" transform="translate(32.000000, 718.000000)">
                <g id="eventbrite" transform="translate(106.000000, 278.000000)">
                    <path d="M57.5769885,10.5168771 C57.5769885,11.3029976 57.5758283,12.0891181 57.5775686,12.8751422 C57.5782453,13.2157687 57.6540422,13.3094554 57.9863303,13.3855036 C58.6416252,13.5354795 59.300884,13.5714313 59.962173,13.4309012 C61.1205891,13.1848289 61.9028244,12.516588 62.2319221,11.3689253 C62.3902834,10.8168289 62.4409436,10.2502747 62.3456174,9.67678072 C62.206302,8.83764819 61.7973469,8.16873253 61.0478859,7.7515759 C59.9710676,7.15215422 58.884968,7.25335904 57.8085363,7.77817831 C57.6341262,7.86319036 57.5702209,7.98569639 57.5727346,8.18174458 C57.5826926,8.96005783 57.5768918,9.73846747 57.5769885,10.5168771 M54.7653498,7.74964819 C54.7653498,5.43735904 54.7652531,3.12516627 54.7654465,0.812973494 C54.7654465,0.43273253 54.7842023,0.412877108 55.1639602,0.38213012 C55.496925,0.355238554 55.8295998,0.354660241 56.1528,0.450081928 C56.8825383,0.6656 57.3056086,1.17268434 57.474218,1.89297349 C57.5386066,2.16805783 57.5674172,2.45634699 57.5723479,2.73923855 C57.5854963,3.49432289 57.576215,4.24979277 57.5771818,5.00516627 C57.5774719,5.30781687 57.5998049,5.3209253 57.8757287,5.20747952 C58.5200021,4.94270843 59.194343,4.83504578 59.887923,4.82039518 C60.7255559,4.80266024 61.5371818,4.9296 62.3065588,5.26550361 C63.7726096,5.90550361 64.6887463,7.02213012 65.0831994,8.55485301 C65.3892873,9.7442506 65.3461682,10.9404916 64.990677,12.1136964 C64.4829152,13.7891663 63.3679084,14.8977928 61.723677,15.4847807 C60.9610676,15.7569735 60.1700344,15.8791904 59.3618889,15.9037687 C57.9754055,15.9460819 56.6192795,15.7696964 55.2961213,15.3508048 C54.784299,15.1887807 54.7663166,15.1650699 54.7656398,14.6400578 C54.7647697,13.9310458 54.7653498,13.2219373 54.7653498,12.5128289 L54.7653498,7.74964819" id="Fill-1"></path>
                    <path d="M0.000560742188,9.51795663 C0.000560742188,7.68325783 -0.00195292969,5.84855904 0.0035578125,4.01395663 C0.00433125,3.76923373 0.0153527344,3.51718554 0.0734572266,3.28113735 C0.339133008,2.20123373 1.31337422,1.55159518 2.21336543,1.5341494 C2.29834688,1.53251084 2.383425,1.53029398 2.46840645,1.53029398 C4.52517012,1.53000482 6.58193379,1.53000482 8.63869746,1.5301012 C9.01043086,1.53019759 9.01081758,1.53067952 9.01101094,1.8987759 C9.01139766,2.55400482 9.01130098,3.20923373 9.01081758,3.86455904 C9.01081758,3.93386024 9.00994746,4.00335422 9.00395332,4.07236627 C8.9968957,4.15284819 8.94845918,4.19757108 8.86753828,4.20171566 C8.79038789,4.20557108 8.71304414,4.20624578 8.63570039,4.20624578 C6.88048066,4.20643855 5.12526094,4.20624578 3.37004121,4.20663133 C2.95383516,4.20663133 2.9227043,4.23805301 2.92241426,4.65376386 C2.92193086,5.37839036 2.9222209,6.10301687 2.92241426,6.82764337 C2.92241426,6.88933012 2.92009395,6.95130602 2.92579805,7.01251084 C2.94204023,7.18648675 2.99821113,7.24566747 3.1692375,7.26195663 C3.25363887,7.27005301 3.33920039,7.2667759 3.42418184,7.2667759 C4.94746699,7.26696867 6.47065547,7.2667759 7.99394063,7.26706506 C8.36074336,7.26706506 8.36113008,7.26773976 8.36132344,7.6421012 C8.36171016,8.26658313 8.36161348,8.89096867 8.36122676,9.51535422 C8.36122676,9.58465542 8.36055,9.6541494 8.35600605,9.72325783 C8.34952852,9.82243855 8.29703145,9.8794988 8.1944543,9.88287229 C8.13267598,9.88489639 8.07080098,9.8848 8.00892598,9.8848 C6.46253438,9.88489639 4.91604609,9.88489639 3.36965449,9.88489639 C3.30004512,9.88489639 3.23024238,9.8821012 3.16092305,9.88634217 C3.01213301,9.8954988 2.95112813,9.94889639 2.9288918,10.0914506 C2.92067402,10.1443663 2.92260762,10.1990169 2.92260762,10.2529928 C2.9222209,11.023788 2.9222209,11.7946795 2.92251094,12.5655711 C2.92260762,12.6194506 2.92067402,12.6740048 2.927925,12.7272096 C2.94813105,12.873812 3.0026584,12.9311614 3.14941816,12.9496675 C3.23323945,12.9601735 3.31909102,12.9571855 3.40407246,12.9572819 C5.22116719,12.9575711 7.03826191,12.9573783 8.85535664,12.9576675 C9.21809883,12.9576675 9.24574922,12.9827277 9.27233613,13.3454265 C9.29495918,13.6539566 9.29756953,13.9624867 9.21268477,14.2634024 C9.01091426,14.9787759 8.52074824,15.3971855 7.81295625,15.5644145 C7.54467012,15.6277398 7.26304219,15.6626313 6.9874084,15.6635952 C4.76048848,15.6714024 2.53366523,15.6680289 0.306745313,15.6679325 C0.260339063,15.6679325 0.213932813,15.6674506 0.167623242,15.666294 C0.0641759766,15.663788 0.012065625,15.6063422 0.00616816406,15.5074506 C0.00114082031,15.4229205 0.000754101563,15.3380048 0.000754101563,15.2531855 C0.0004640625,13.3414747 0.000560742188,11.4296675 0.000560742188,9.51795663" id="Fill-3"></path>
                    <path d="M94.1406082,9.45750361 C94.7818846,9.45750361 95.4231609,9.45885301 96.0644373,9.45682892 C96.3119373,9.45605783 96.3754559,9.38993735 96.3463553,9.15273253 C96.3239256,8.96988916 96.2968553,8.78569639 96.2494822,8.60805783 C96.0936346,8.02328675 95.7907371,7.53702169 95.2080486,7.30155181 C94.4220428,6.98396145 93.6633006,7.05702169 92.9713641,7.56584096 C92.5396893,7.88314217 92.2857117,8.3309494 92.1108182,8.8262747 C92.062285,8.96381687 92.0226463,9.10550361 91.9928689,9.24815422 C91.9672488,9.37114217 92.0209061,9.43552771 92.1475564,9.45287711 C92.208368,9.46126265 92.2709197,9.45740723 92.332698,9.45750361 C92.9353025,9.45769639 93.5380037,9.4576 94.1406082,9.45750361 M95.1597088,11.1304675 C94.2397049,11.1305639 93.319701,11.1305639 92.3996971,11.1305639 C92.3378221,11.1305639 92.2759471,11.1293108 92.2141687,11.1311422 C91.981074,11.1377928 91.9199725,11.2068048 91.9727596,11.4319614 C92.0658621,11.8297446 92.2529373,12.1811663 92.5303113,12.4824675 C93.0146766,13.0084434 93.6295594,13.2930699 94.319659,13.4336 C95.0839119,13.5890699 95.8428475,13.5037687 96.5979158,13.365359 C97.1545008,13.2634795 97.6878826,13.082853 98.2058924,12.8560578 C98.4434344,12.7520578 98.4883904,12.7654554 98.6028592,12.9967807 C98.9841639,13.7675759 98.8993758,14.7075277 98.007699,15.2564434 C97.551951,15.5371181 97.0455428,15.6656964 96.5268562,15.7629494 C95.7782654,15.9031904 95.0221336,15.9432867 94.2649383,15.8956723 C93.2565691,15.8322506 92.299827,15.5785639 91.4388943,15.0286843 C90.402198,14.3665157 89.7280506,13.4294554 89.4128748,12.2534554 C89.0031463,10.7250699 89.0751727,9.20815422 89.7242801,7.75649157 C90.476158,6.07523855 91.797576,5.11437108 93.6297527,4.86916627 C94.4180789,4.7636241 95.2025379,4.80323855 95.9732684,5.01143133 C97.1022937,5.31620241 97.9102459,6.00352771 98.4026355,7.05885301 C98.7091102,7.7156241 98.8635076,8.41287711 98.9266395,9.13046747 C98.9569969,9.47543133 98.9606707,9.82261205 98.9835838,10.1682506 C99.0273797,10.8311904 98.5522957,11.1399133 98.0356395,11.1337446 C97.077157,11.1223711 96.1183846,11.1304675 95.1597088,11.1304675" id="Fill-6"></path>
                    <path d="M26.7709438,9.45754217 C27.4043892,9.45754217 28.0379312,9.4586988 28.6713765,9.45696386 C28.9382124,9.45628916 29.0041479,9.38689157 28.9634458,9.12048193 C28.9286411,8.89310843 28.8893892,8.66322892 28.819103,8.44501205 C28.6400522,7.88944578 28.3007065,7.4613012 27.7350337,7.26120482 C27.0500581,7.01889157 26.3762974,7.06322892 25.754937,7.45204819 C25.0906509,7.86766265 24.7798257,8.52212048 24.6123765,9.25715663 C24.5866597,9.36973494 24.6419604,9.43325301 24.754979,9.45156627 C24.8154038,9.4613012 24.8782456,9.4573494 24.9400239,9.45744578 C25.5503628,9.45773494 26.160605,9.45763855 26.7709438,9.45754217 M27.7779595,11.130506 C26.8502212,11.130506 25.9224829,11.130506 24.9946479,11.1306024 C24.9328696,11.1306024 24.8708979,11.1286747 24.8091196,11.1315663 C24.6050288,11.141012 24.5424771,11.2094458 24.5902368,11.4107952 C24.6290054,11.5743614 24.6857563,11.7365783 24.7560425,11.8895422 C24.982563,12.3824578 25.351396,12.7481446 25.8183589,13.0166747 C26.5387192,13.4309398 27.3207612,13.5550843 28.1412817,13.5034217 C29.0915464,13.4435663 30.001689,13.2271807 30.8704526,12.8368193 C31.0485366,12.7568193 31.0990034,12.7724337 31.1898823,12.9382169 C31.5997075,13.6853012 31.5408296,14.6176386 30.7421587,15.1788916 C30.3359106,15.4643855 29.8752319,15.6114699 29.3961841,15.714506 C28.5596147,15.8942651 27.7120239,15.9467952 26.8609526,15.8949398 C26.1007603,15.8485783 25.3632876,15.6833735 24.668354,15.3597108 C23.319769,14.7316627 22.4319595,13.6986988 22.0413735,12.2738313 C21.6119224,10.7071807 21.698354,9.15450602 22.3836196,7.67093976 C23.0845474,6.15363855 24.2831821,5.2333494 25.9318608,4.91768675 C26.8321421,4.7453494 27.7323267,4.77686747 28.6178159,5.01821687 C29.7367866,5.32318072 30.536811,6.01291566 31.02427,7.06033735 C31.3265874,7.71007229 31.4819517,8.39980723 31.5445034,9.10968675 C31.5769878,9.47749398 31.5775679,9.848 31.6025112,10.2166747 C31.6389595,10.7567229 31.2417026,11.1365783 30.6770933,11.1324337 C29.7107798,11.1253012 28.7443696,11.1304096 27.7779595,11.130506" id="Fill-9"></path>
                    <path d="M33.5155412,10.6898699 L33.5155412,6.18008675 C33.5155412,6.11068916 33.5143811,6.04129157 33.5163146,5.97189398 C33.5224055,5.75550843 33.5394211,5.7184 33.7454455,5.65285783 C34.1424123,5.52659277 34.5394758,5.39733976 34.9431135,5.29565301 C36.320799,4.9483759 37.7190773,4.7677494 39.1426857,4.83097831 C39.7390061,4.85748434 40.3255617,4.94895422 40.8898811,5.15367711 C41.9849719,5.55097831 42.6608596,6.32485783 42.9567961,7.44023133 C43.0860568,7.92755663 43.1361369,8.42664096 43.1376838,8.92726747 C43.1447414,11.1165687 43.1406809,13.3059663 43.1405842,15.4953639 C43.1405842,15.5492434 43.1413576,15.603412 43.1377805,15.6570988 C43.1309162,15.7622554 43.0752287,15.8311711 42.9713947,15.8512193 C42.3941203,15.9624482 41.8314445,15.9357494 41.3057971,15.6454361 C40.8069299,15.3698699 40.5259787,14.9252434 40.4026154,14.3867373 C40.33784,14.1040386 40.3060324,13.8081349 40.3040021,13.5179181 C40.2942375,12.091894 40.3022619,10.6655807 40.2966545,9.23946024 C40.2957844,9.02529157 40.2776086,8.80649639 40.2306223,8.59811084 C40.0769016,7.91550843 39.6353654,7.50673735 38.9513566,7.39676145 C38.5963488,7.33960482 38.2258723,7.32967711 37.8670939,7.35811084 C37.4615227,7.39020723 37.0589484,7.47859277 36.6592746,7.56244819 C36.3671086,7.62384578 36.3244729,7.69536386 36.3243762,7.99531566 C36.3237961,10.423653 36.3240861,12.8519904 36.3239895,15.2804241 C36.3239895,15.6677976 36.3237961,15.667894 35.9440383,15.6679904 C35.2636066,15.6680867 34.5830783,15.6680867 33.9026467,15.6679904 C33.5161213,15.6679904 33.5156379,15.667894 33.5156379,15.2921831 C33.5154445,13.7581108 33.5155412,12.2239422 33.5155412,10.6898699" id="Fill-11"></path>
                    <path d="M15.8360941,15.6679807 C15.3567562,15.6679807 14.8774184,15.6687518 14.3980805,15.6675952 C14.1576381,15.6671133 14.1511605,15.6628723 14.062892,15.4330892 C13.2173314,13.2331855 12.3721576,11.0329928 11.5271771,8.8328 C11.1185121,7.76870361 10.7105238,6.70422169 10.3021488,5.63993253 C10.2828129,5.58961928 10.2620268,5.53978795 10.2436576,5.48908916 C10.2013119,5.37275181 10.226352,5.27896867 10.3352133,5.2101494 C11.1407484,4.70046265 12.4047387,4.5381494 13.1826234,5.62942651 C13.3813002,5.90807711 13.5312504,6.21005301 13.6434955,6.53226988 C14.3201566,8.47376386 14.9975912,10.4150651 15.6748324,12.3564627 C15.7027729,12.4364627 15.7236557,12.5204145 15.7634877,12.594053 C15.7893012,12.6418602 15.8384145,12.690053 15.8876244,12.7063422 C15.9092807,12.7134747 15.9677719,12.6470651 15.990685,12.6040771 C16.0266498,12.5368 16.0476293,12.4614265 16.0730561,12.3887518 C16.8910629,10.0479325 17.7088764,7.70711325 18.5267865,5.36619759 C18.5445756,5.31530602 18.5636215,5.26489639 18.5806371,5.21371566 C18.6169887,5.1041253 18.6904652,5.05573976 18.8078344,5.05853494 C18.993266,5.06296867 19.178891,5.05920964 19.3644193,5.05920964 C19.9751449,5.05911325 20.5859672,5.05911325 21.1966928,5.05940241 C21.2584711,5.05940241 21.3215062,5.05487229 21.3818344,5.06508916 C21.4813178,5.08195663 21.5313012,5.14566747 21.507518,5.24716145 C21.4918559,5.3141494 21.4632387,5.37834217 21.438392,5.44301687 C20.1657006,8.76600482 18.8928158,12.0889928 17.619641,15.411788 C17.5243148,15.660559 17.5136801,15.6674988 17.2509047,15.667788 C16.7793012,15.6684627 16.3076977,15.6679807 15.8360941,15.6679807" id="Fill-13"></path>
                    <path d="M81.6470209,10.5303036 C81.6470209,9.78254458 81.6525316,9.03459277 81.645184,8.28693012 C81.6398666,7.74948434 81.2709369,7.39362892 80.734558,7.38803855 C80.6881518,7.38755663 80.6417455,7.38823133 80.5954359,7.3877494 C79.9798764,7.38235181 80.0306332,7.46861687 80.0303432,6.81271325 C80.0301498,6.33473735 80.0297631,5.85676145 80.0305365,5.37878554 C80.0310199,5.07690602 80.0473588,5.06032771 80.3407816,5.05946024 C80.6577943,5.05849639 80.9749037,5.06023133 81.2919164,5.05878554 C81.5919135,5.05743614 81.6461508,5.00567711 81.6469242,4.71102651 C81.6485678,4.03256867 81.6474076,3.35411084 81.647601,2.6757494 C81.647601,2.61406265 81.6499213,2.5523759 81.6482777,2.49068916 C81.645184,2.37579759 81.7035785,2.31999036 81.8151469,2.31459277 C81.8691908,2.31199036 81.9233314,2.31112289 81.9774721,2.31102651 C82.6888412,2.31083373 83.400307,2.31083373 84.1116762,2.31102651 C84.1580824,2.31102651 84.204682,2.30958072 84.2508949,2.31314699 C84.4194076,2.32615904 84.4487016,2.35189398 84.4507318,2.52750843 C84.4549857,2.89753253 84.4524721,3.26765301 84.4526654,3.63767711 C84.4527621,3.99227952 84.4514086,4.34688193 84.4531488,4.70158072 C84.454599,5.01117108 84.5034223,5.05849639 84.8214984,5.05888193 C85.5871049,5.0597494 86.3526146,5.05917108 87.1182211,5.05917108 C87.172265,5.05917108 87.2265023,5.05762892 87.2805463,5.05994217 C87.4674281,5.06784578 87.5022328,5.1043759 87.5084203,5.29830361 C87.5099672,5.34456867 87.508807,5.39083373 87.508807,5.4370988 C87.5089037,5.95362892 87.5089037,6.47015904 87.508807,6.98668916 C87.508807,7.38765301 87.5087104,7.3877494 87.1177377,7.38784578 C86.3598656,7.38794217 85.6020902,7.3877494 84.8442182,7.38794217 C84.7824398,7.38803855 84.7202748,7.38668916 84.6587865,7.39150843 C84.5414174,7.40056867 84.4775121,7.47160482 84.4602064,7.58254458 C84.4507318,7.64297831 84.4529555,7.70553253 84.4529555,7.76712289 C84.4526654,9.08538795 84.4463813,10.4037494 84.4581762,11.7219181 C84.4604965,11.9798458 84.5073861,12.2444241 84.5788324,12.4930988 C84.7105102,12.951894 85.0470521,13.2024964 85.5087943,13.2932916 C85.9919994,13.3884241 86.4632162,13.3160386 86.9261186,13.1767614 C87.1102934,13.1212434 87.2878939,13.0430747 87.4664613,12.9703036 C87.6930785,12.8779663 87.7625912,12.8953157 87.8701957,13.1183518 C88.2545941,13.9150747 88.1430258,14.8237012 87.278516,15.3904482 C86.882516,15.6500145 86.4376928,15.7774361 85.9754672,15.8425928 C85.3043168,15.9370506 84.63539,15.9247133 83.9725541,15.7637494 C82.6745326,15.4485687 81.8228812,14.4906892 81.6966176,13.1635566 C81.6515648,12.6893398 81.6574623,12.2100145 81.6489545,11.732906 C81.6418002,11.3321349 81.6475043,10.9311711 81.6475043,10.5303036 L81.6470209,10.5303036 Z" id="Fill-15"></path>
                    <path d="M46.2892192,10.4504096 C46.2892192,9.74110843 46.2725903,9.03122892 46.2946333,8.32260241 C46.3109722,7.7986506 45.8944761,7.34862651 45.3504595,7.3866988 C45.2350239,7.39479518 45.1185249,7.38814458 45.0025093,7.38775904 C44.7036724,7.3866988 44.6969048,7.38033735 44.6954546,7.07171084 C44.6943911,6.8326747 44.6951646,6.59373494 44.6952612,6.3546988 C44.6952612,6.00771084 44.6930376,5.66072289 44.6963247,5.31383133 C44.6985483,5.08125301 44.7194312,5.06168675 44.9483687,5.05985542 C45.2422749,5.05754217 45.5361812,5.05927711 45.8299907,5.05918072 C46.2891226,5.05898795 46.2892192,5.05889157 46.2892192,4.59007229 C46.2893159,3.92703614 46.2887358,3.26390361 46.2895093,2.60086747 C46.289896,2.33320482 46.3088452,2.31238554 46.5798384,2.31171084 C47.3222417,2.30987952 48.064645,2.31007229 48.8070483,2.31142169 C49.0829722,2.312 49.0994077,2.328 49.1000845,2.59653012 C49.101728,3.26727711 49.1002778,3.93812048 49.1008579,4.60886747 C49.1013413,5.0326747 49.1275415,5.05898795 49.5416206,5.05908434 C50.2994927,5.05927711 51.0573647,5.05908434 51.8153335,5.05927711 C51.8771118,5.05927711 51.9390835,5.05937349 52.0008618,5.06216867 C52.0924175,5.06621687 52.1469448,5.11508434 52.1471382,5.20684337 C52.1487817,5.87759036 52.1490718,6.54833735 52.1477183,7.21908434 C52.1475249,7.33233735 52.0804292,7.38515663 51.969731,7.38660241 C51.907856,7.38746988 51.8460776,7.38775904 51.7842026,7.38775904 C51.0263306,7.38785542 50.2683618,7.38785542 49.5104897,7.38795181 C49.4486147,7.38795181 49.386353,7.38457831 49.3250581,7.39055422 C49.1885464,7.40385542 49.1330522,7.45387952 49.111106,7.58987952 C49.1000845,7.65783133 49.1012446,7.72819277 49.1011479,7.79739759 C49.1006646,9.08501205 49.0988276,10.3725301 49.1024048,11.6601446 C49.1031782,11.9374458 49.1321821,12.2125301 49.2198706,12.4799036 C49.3719478,12.9436145 49.6942778,13.2056867 50.1673315,13.2942651 C50.7079644,13.3955663 51.2282944,13.2998554 51.7385698,13.1241446 C51.8770151,13.0763373 52.0100464,13.013012 52.1463647,12.958747 C52.33402,12.8840482 52.3961851,12.8990843 52.490061,13.0668916 C52.8395581,13.6910843 52.8792935,14.6456867 52.1079829,15.2606265 C51.7687339,15.5311807 51.378438,15.6916627 50.9566245,15.7787952 C50.079063,15.9599036 49.2056587,15.9604819 48.3472397,15.6802892 C47.2452847,15.3205783 46.6071987,14.5449639 46.3874458,13.4263133 C46.3210269,13.0885783 46.3010142,12.7384096 46.2933765,12.393253 C46.2790679,11.7459277 46.2892192,11.0980241 46.2892192,10.4504096" id="Fill-17"></path>
                    <path d="M67.057592,10.6906892 C67.057592,9.16432771 67.0632961,7.63796627 67.0521779,6.1117012 C67.0502443,5.84673735 67.1427668,5.70630361 67.3847561,5.60606265 C68.1956086,5.27044819 69.0329514,5.04143614 69.9012316,4.91603855 C70.4925246,4.83064096 71.0856545,4.80288193 71.6813947,4.83025542 C72.0539016,4.84741205 72.4189641,4.91517108 72.762467,5.06408675 C73.4124445,5.34582169 73.7650354,5.83565301 73.787465,6.55083373 C73.7984865,6.90080964 73.7592346,7.2430747 73.638385,7.57319518 C73.5677121,7.76606265 73.5269133,7.7843759 73.326593,7.72365301 C72.502592,7.47401446 71.6612854,7.3964241 70.8067336,7.48943614 C70.5625207,7.51594217 70.3213049,7.57984578 70.082216,7.64047229 C69.9046154,7.68558072 69.8774484,7.73454458 69.8714543,7.92095422 C69.869134,7.99025542 69.8707775,8.05965301 69.8707775,8.1290506 C69.8707775,10.4801831 69.8680705,12.831412 69.8726145,15.1825446 C69.8737746,15.7602795 69.8219543,15.6656289 69.396467,15.6672675 C68.7237697,15.6699663 68.0510725,15.6682313 67.3783752,15.6678458 C67.0666799,15.667653 67.0580754,15.6601349 67.0579787,15.3390747 C67.0572053,13.8435566 67.057592,12.3480386 67.057592,10.8526169 L67.057592,10.6906892" id="Fill-19"></path>
                    <path d="M78.3204082,10.4510169 C78.3204082,12.1385349 78.3205049,13.8259566 78.3203115,15.5134747 C78.3202148,15.8040771 78.3073564,15.8345349 78.0233115,15.8766554 C77.5257012,15.9504867 77.036502,15.918294 76.5772734,15.6873542 C75.9909111,15.3925108 75.6950713,14.8870651 75.5749951,14.2684627 C75.5298457,14.035788 75.5121533,13.7945349 75.5117666,13.5572337 C75.5075127,10.8372337 75.5088662,8.11713735 75.5091563,5.39713735 C75.5092529,5.06007711 75.5105098,5.0594988 75.8405742,5.05930602 C76.5515566,5.05892048 77.2626357,5.05911325 77.9737148,5.05930602 C78.0354932,5.05930602 78.0975615,5.05843855 78.1590498,5.06287229 C78.2595,5.0701012 78.3127705,5.12783614 78.3179912,5.2268241 C78.3215684,5.29602892 78.3203115,5.36542651 78.3203115,5.4348241 C78.3204082,7.1068241 78.3204082,8.77892048 78.3204082,10.4510169" id="Fill-21"></path>
                    <path d="M76.898221,0.0971084337 C77.7359505,0.0717590361 78.5977532,0.752048193 78.5929192,1.80824096 C78.5880853,2.8460241 77.6924446,3.47166265 76.8927103,3.46925301 C76.0713196,3.4666506 75.205553,2.82983133 75.203136,1.80255422 C75.200719,0.761204819 76.0379651,0.0706024096 76.898221,0.0971084337" id="Fill-23"></path>
                </g>
            </g>
        </g>
    </g>
</svg>