<svg width="188" height="32" viewBox="0 0 188 32" xmlns="http://www.w3.org/2000/svg"><title>Polymer Day</title><g fill="none" fill-rule="evenodd"><path d="M177.065 19.9c0-.084-.028-.18-.083-.29l-8.595-16.862c-.138-.36-.207-.622-.207-.787 0-.303.103-.53.31-.683.21-.15.437-.228.687-.228.332 0 .65.248.955.745l7.97 15.95 8.014-15.95c.25-.497.568-.746.955-.746.222 0 .43.076.624.227.193.153.29.38.29.684 0 .083-.007.195-.02.332-.015.14-.063.29-.145.456l-8.638 16.86c-.028.056-.04.153-.04.29v10.523c0 .306-.113.534-.333.685-.223.152-.458.227-.707.227-.278 0-.52-.075-.727-.227-.207-.15-.31-.38-.31-.684V19.9zM167.617 22.22L162.26 4.53l-5.48 17.69h10.837zm-14.283 9.113c-.277 0-.54-.076-.788-.228-.25-.15-.375-.38-.375-.684 0-.11.015-.19.043-.247L161.1 1.547c.164-.498.552-.747 1.16-.747.25 0 .485.063.707.187.22.124.374.31.456.56l8.802 28.626c0 .056.007.096.02.124.015.028.02.07.02.124 0 .25-.123.464-.37.644-.25.18-.528.27-.832.27-.443 0-.72-.208-.83-.623l-2.035-6.585H156.24l-1.993 6.586c-.138.416-.442.623-.913.623zM150.97 5.73c-.428-1.103-1.023-2-1.784-2.692-.76-.69-1.655-1.195-2.678-1.512-1.025-.318-2.118-.477-3.28-.477h-6.235c-.25 0-.45.08-.602.256-.15.177-.227.415-.227.715s.076.543.228.734c.154.19.354.285.603.285l3.547-.002h2.687c1.994 0 3.544.538 4.65 1.616 1.108 1.076 1.66 2.776 1.66 5.095v12.883c0 2.32-.552 4.02-1.66 5.096-1.106 1.076-2.656 1.615-4.65 1.615H136.993c-.25 0-.45.08-.602.256-.15.178-.227.416-.227.715 0 .3.076.544.228.733.154.19.354.286.603.286h6.234c1.163 0 2.256-.16 3.28-.478 1.024-.317 1.918-.82 2.68-1.51.76-.692 1.355-1.59 1.784-2.694.43-1.105.645-2.444.645-4.02V9.75c0-1.576-.215-2.914-.644-4.02" fill-opacity=".32" fill="#FFF"/><path d="M133.515 31.83c-.387 0-.726-.15-1.017-.455-.29-.304-.436-.663-.436-1.076 0-.472.146-.85.436-1.14.29-.29.63-.436 1.017-.436.416 0 .776.145 1.08.435.304.29.456.668.456 1.14 0 .412-.15.77-.455 1.075-.304.304-.664.456-1.08.456M113.81 3.038V15.3h5.936c.997 0 1.904-.11 2.72-.33.816-.22 1.515-.58 2.096-1.078.583-.497 1.04-1.14 1.37-1.927.334-.787.5-1.733.5-2.837 0-1.105-.166-2.043-.5-2.818-.33-.772-.787-1.4-1.37-1.884-.58-.483-1.28-.835-2.096-1.057-.816-.22-1.723-.332-2.72-.332h-5.936zm-2.076-1.12c0-.22.076-.42.228-.6.152-.178.38-.268.686-.268h7.098c1.163 0 2.277.13 3.343.393 1.065.263 1.998.705 2.802 1.326.803.62 1.44 1.45 1.91 2.484.47 1.036.706 2.314.706 3.832 0 1.3-.173 2.417-.52 3.356-.346.94-.824 1.726-1.432 2.362-.61.635-1.33 1.125-2.16 1.47-.83.346-1.716.588-2.656.725l6.643 12.842c.083.166.125.33.125.497 0 .275-.098.516-.29.724-.196.207-.473.31-.832.31-.25 0-.484-.165-.705-.496-.22-.332-.414-.65-.58-.954l-6.52-12.717h-5.77V30.42c0 .306-.103.534-.312.684-.207.153-.45.228-.726.228-.25 0-.485-.075-.707-.228-.22-.15-.33-.378-.33-.683V1.92zM94.317 15.217h6.6c.277 0 .492.098.644.29.153.194.23.43.23.705 0 .22-.07.428-.208.62-.138.194-.36.292-.664.292h-6.6v12.22h13.7c.276 0 .49.104.643.31.153.21.23.45.23.726 0 .22-.07.435-.208.643-.14.206-.36.31-.664.31h-14.78c-.25 0-.48-.076-.686-.23-.208-.15-.31-.377-.31-.682V1.96c0-.302.102-.53.31-.683.207-.15.436-.227.685-.227h14.78c.305 0 .526.103.665.31.138.207.208.42.208.642 0 .276-.077.517-.23.725-.15.207-.366.31-.642.31h-13.7v12.18zM89.41 1.256c-.208-.138-.45-.206-.727-.206-.388 0-.726.193-1.017.58-.29.386-.534.76-.727 1.118l-7.64 14.83-7.6-14.83c-.192-.36-.44-.732-.745-1.12-.306-.385-.638-.578-.997-.578h-.182c-.22 0-.417.09-.592.25-.036.032-.072.064-.1.104-.094.108-.183.232-.263.39l-8.012 15.95-7.972-15.95c-.305-.496-.623-.744-.954-.744-.25 0-.478.076-.686.227-.207.153-.31.38-.31.684 0 .167.067.43.207.788l8.594 16.86c.056.11.083.208.083.29v10.523c0 .306.103.534.312.684.207.153.45.23.726.23.25 0 .485-.077.706-.23.22-.15.332-.378.332-.683V19.9c0-.14.014-.236.04-.29L68.92 5.876V30.42c0 .306.11.534.332.684.22.153.457.23.706.23.276 0 .52-.077.726-.23.21-.15.312-.378.312-.683V5.73l7.35 14.127c.275.58.594.87.954.87.11 0 .255-.068.436-.207.18-.137.353-.358.518-.663l7.39-14.085v24.65c0 .304.105.532.313.682.207.153.45.23.726.23.25 0 .483-.077.705-.23.222-.15.332-.378.332-.683V2.044c0-.385-.103-.648-.31-.787M43.243 31.333c-.25 0-.478-.075-.686-.228-.207-.15-.31-.38-.31-.684V1.92c0-.304.11-.525.33-.664.222-.137.457-.206.707-.206.276 0 .52.07.727.206.208.14.312.36.312.664v27.425H56.57c.276 0 .478.103.603.31.123.208.187.435.187.684 0 .248-.064.475-.187.683-.125.206-.327.31-.603.31H43.243zM37.865 9.75c0-2.32-.553-4.02-1.66-5.096-1.108-1.078-2.657-1.616-4.65-1.616-1.993 0-3.537.538-4.63 1.616-1.093 1.076-1.64 2.776-1.64 5.095V22.88c0 2.32.547 4.018 1.64 5.095s2.637 1.616 4.63 1.616c1.993 0 3.542-.54 4.65-1.616 1.107-1.077 1.66-2.776 1.66-5.095V9.75zm-6.31 21.83c-1.19 0-2.292-.158-3.302-.475-1.01-.318-1.89-.82-2.635-1.512-.748-.69-1.336-1.588-1.765-2.693-.43-1.104-.644-2.444-.644-4.018V9.75c0-1.576.214-2.914.643-4.02.43-1.103 1.017-2 1.765-2.692.746-.69 1.625-1.195 2.635-1.512 1.01-.318 2.11-.476 3.3-.476 1.163 0 2.257.158 3.28.476 1.025.317 1.918.822 2.68 1.512.76.69 1.356 1.59 1.785 2.692.43 1.106.644 2.444.644 4.02V22.88c0 1.574-.215 2.914-.644 4.018-.43 1.105-1.024 2.003-1.786 2.693-.76.69-1.654 1.194-2.678 1.512-1.024.317-2.118.476-3.28.476zM20.245 5.69c-.43-1.105-1.017-1.996-1.765-2.673-.747-.676-1.633-1.174-2.657-1.49-1.024-.32-2.117-.477-3.28-.477L4.93 1.048c-.248 0-.45.096-.6.286-.153.19-.23.434-.23.733 0 .3.077.537.23.714.15.178.352.258.6.258h7.572c1.993 0 3.542.538 4.65 1.616 1.106 1.076 1.66 2.775 1.66 5.095v.455c0 2.32-.554 4.026-1.66 5.116-1.108 1.092-2.657 1.637-4.65 1.637H5.935c-1.01 0-1.82.823-1.82 1.83v11.634c0 .306.11.534.332.684.22.153.457.228.706.228.276 0 .52-.075.727-.228.207-.15.31-.378.31-.683V18.864h6.312c1.163 0 2.255-.16 3.28-.476 1.023-.318 1.916-.822 2.678-1.512.76-.69 1.356-1.588 1.785-2.692.43-1.106.644-2.445.644-4.02v-.456c0-1.574-.216-2.913-.645-4.018" fill="#FEFEFE"/><path d="M1.453.552c-.388 0-.727.15-1.017.455C.146 1.31 0 1.67 0 2.083c0 .47.145.85.436 1.14.29.29.63.435 1.017.435.416 0 .776-.145 1.08-.435.304-.29.456-.67.456-1.14 0-.413-.153-.772-.457-1.076C2.23.703 1.87.552 1.453.552" fill-opacity=".32" fill="#FFF"/></g></svg>
