<svg width="382" height="64" viewBox="0 0 382 64" xmlns="http://www.w3.org/2000/svg"><title>Polymer Day</title><g fill="none" fill-rule="evenodd"><path d="M359.78 39.374c0-.17-.056-.366-.168-.59L342.15 4.468c-.283-.73-.423-1.265-.423-1.602 0-.618.21-1.082.632-1.393.422-.306.885-.462 1.393-.462.675 0 1.32.506 1.94 1.517l16.196 32.46 16.28-32.46c.507-1.01 1.155-1.517 1.943-1.517.448 0 .872.156 1.265.462.393.31.59.775.59 1.393 0 .167-.014.394-.04.675-.03.28-.13.59-.296.926l-17.55 34.313c-.056.112-.083.31-.083.59v21.414c0 .62-.228 1.084-.676 1.39-.45.312-.927.465-1.435.465-.564 0-1.054-.153-1.477-.464-.42-.307-.632-.772-.632-1.39V39.373zM340.584 44.094l-10.884-36-11.136 36h22.02zM311.56 62.642c-.562 0-1.095-.153-1.6-.464-.507-.307-.76-.77-.76-1.39 0-.225.027-.392.085-.507L327.34 2.026c.335-1.012 1.122-1.52 2.36-1.52.506 0 .983.128 1.435.38.448.254.76.634.927 1.14l17.884 58.256c0 .116.014.198.044.255.027.055.04.14.04.252 0 .505-.25.942-.757 1.308-.508.366-1.07.547-1.688.547-.9 0-1.463-.42-1.687-1.265l-4.133-13.404h-24.297l-4.05 13.404c-.282.844-.9 1.265-1.857 1.265zM306.76 10.54c-.872-2.247-2.08-4.075-3.627-5.48-1.547-1.405-3.363-2.432-5.442-3.077-2.08-.647-4.3-.97-6.664-.97h-12.668c-.505 0-.912.163-1.22.522-.31.36-.466.844-.466 1.454 0 .607.157 1.104.466 1.49.31.39.716.582 1.22.582l7.21-.002h5.46c4.05 0 7.2 1.094 9.45 3.288 2.25 2.19 3.373 5.65 3.373 10.37v26.22c0 4.72-1.125 8.18-3.374 10.37-2.25 2.192-5.4 3.288-9.45 3.288h-12.668c-.505 0-.912.162-1.22.522-.31.36-.466.843-.466 1.453 0 .61.157 1.107.466 1.493.31.388.716.58 1.22.58h12.67c2.363 0 4.584-.324 6.665-.97 2.08-.646 3.896-1.672 5.443-3.077 1.546-1.404 2.755-3.23 3.627-5.48.872-2.248 1.31-4.974 1.31-8.178v-26.22c0-3.205-.438-5.93-1.31-8.18" fill="#DF4B63"/><path d="M271.292 63.655c-.788 0-1.477-.31-2.067-.926-.59-.62-.886-1.35-.886-2.192 0-.96.294-1.73.885-2.32.59-.59 1.28-.884 2.067-.884.844 0 1.576.295 2.194.885.618.59.927 1.36.927 2.318 0 .84-.31 1.57-.927 2.19-.618.618-1.35.927-2.194.927M231.252 5.06v24.955h12.062c2.026 0 3.87-.224 5.527-.674 1.658-.448 3.08-1.18 4.26-2.19 1.183-1.014 2.11-2.32 2.786-3.923.675-1.6 1.01-3.526 1.01-5.774s-.335-4.158-1.01-5.734c-.676-1.572-1.603-2.853-2.786-3.836-1.18-.983-2.602-1.7-4.26-2.15-1.657-.448-3.5-.675-5.526-.675h-12.062zm-4.217-2.277c0-.45.153-.858.46-1.223.31-.363.775-.546 1.396-.546h14.424c2.362 0 4.626.267 6.793.8 2.165.535 4.062 1.434 5.694 2.698 1.633 1.263 2.926 2.95 3.882 5.057.954 2.108 1.435 4.71 1.435 7.797 0 2.645-.352 4.92-1.055 6.83-.705 1.91-1.675 3.513-2.91 4.807-1.24 1.292-2.7 2.29-4.388 2.99-1.687.706-3.488 1.198-5.398 1.477l13.497 26.137c.17.338.254.674.254 1.013 0 .56-.2 1.052-.59 1.475-.397.42-.96.632-1.69.632-.505 0-.983-.337-1.432-1.01-.45-.676-.844-1.32-1.183-1.94L242.98 33.893H231.25v26.893c0 .62-.21 1.084-.633 1.39-.423.31-.917.464-1.478.464-.505 0-.984-.152-1.434-.463-.45-.306-.673-.77-.673-1.39V2.783zM191.644 29.846h13.412c.56 0 .998.2 1.307.59.31.393.465.874.465 1.434 0 .45-.14.872-.42 1.265-.283.393-.734.59-1.352.59h-13.412v24.87h27.84c.56 0 .997.21 1.306.633.31.423.464.913.464 1.475 0 .45-.14.885-.42 1.308-.284.42-.732.632-1.35.632H189.45c-.507 0-.97-.154-1.393-.465-.42-.306-.63-.77-.63-1.39V2.867c0-.616.21-1.08.63-1.39.422-.308.886-.464 1.392-.464h30.034c.618 0 1.066.21 1.35.63.28.422.42.86.42 1.31 0 .56-.155 1.05-.464 1.475-.31.42-.746.63-1.306.63h-27.84v24.788zM181.673 1.434c-.422-.282-.916-.42-1.477-.42-.788 0-1.476.393-2.066 1.18-.59.786-1.085 1.545-1.478 2.275l-15.52 30.18-15.44-30.18c-.395-.73-.9-1.49-1.518-2.277-.62-.786-1.296-1.18-2.026-1.18h-.368c-.45 0-.848.183-1.204.51-.074.064-.146.13-.204.212-.19.22-.37.472-.533.795l-16.283 32.46L107.36 2.53c-.62-1.012-1.267-1.517-1.94-1.517-.508 0-.972.156-1.393.463-.422.31-.634.775-.634 1.392 0 .337.14.87.424 1.6l17.463 34.315c.112.225.167.42.167.59v21.414c0 .62.21 1.083.634 1.39.422.31.914.465 1.477.465.506 0 .984-.154 1.435-.465.448-.307.673-.77.673-1.39V39.374c0-.282.03-.478.084-.59l14.29-27.946v49.95c0 .62.223 1.082.673 1.39.45.31.93.464 1.435.464.56 0 1.055-.154 1.476-.465.424-.307.634-.77.634-1.39V10.54l14.933 28.75c.562 1.18 1.21 1.77 1.94 1.77.224 0 .518-.14.887-.422.364-.28.716-.73 1.052-1.35l15.016-28.665v50.164c0 .62.212 1.083.634 1.39.42.31.914.465 1.476.465.506 0 .982-.154 1.433-.465.45-.307.674-.77.674-1.39V3.035c0-.784-.21-1.32-.63-1.6M87.866 62.642c-.506 0-.97-.153-1.393-.464-.422-.307-.633-.77-.633-1.39V2.783c0-.618.225-1.068.675-1.35.45-.28.927-.42 1.435-.42.56 0 1.053.14 1.477.42.42.282.63.732.63 1.35v55.812h24.888c.56 0 .97.21 1.225.63.252.425.38.886.38 1.394 0 .506-.128.967-.38 1.39-.254.422-.664.632-1.225.632h-27.08zM76.938 18.717c0-4.72-1.123-8.178-3.373-10.37-2.25-2.193-5.398-3.288-9.45-3.288-4.048 0-7.185 1.094-9.405 3.288-2.222 2.19-3.332 5.65-3.332 10.37v26.725c0 4.72 1.11 8.18 3.332 10.37 2.22 2.192 5.357 3.288 9.405 3.288 4.052 0 7.2-1.095 9.45-3.288 2.25-2.19 3.373-5.648 3.373-10.37V18.718zm-12.823 44.43c-2.42 0-4.654-.323-6.707-.97-2.053-.645-3.838-1.67-5.355-3.076-1.52-1.402-2.714-3.23-3.586-5.478-.872-2.248-1.31-4.974-1.31-8.18V18.718c0-3.204.438-5.928 1.31-8.178.872-2.247 2.067-4.075 3.586-5.48 1.517-1.405 3.302-2.432 5.355-3.077 2.053-.647 4.288-.97 6.707-.97 2.362 0 4.584.323 6.665.97 2.08.645 3.895 1.672 5.44 3.076 1.55 1.405 2.757 3.233 3.63 5.48.87 2.25 1.308 4.973 1.308 8.177v26.726c0 3.205-.437 5.93-1.31 8.18-.87 2.247-2.08 4.075-3.627 5.478-1.545 1.408-3.36 2.432-5.44 3.078-2.08.646-4.303.97-6.665.97zM41.135 10.454c-.872-2.245-2.066-4.06-3.586-5.436-1.518-1.377-3.32-2.39-5.4-3.035-2.08-.647-4.3-.97-6.663-.97l-15.47-.003c-.505 0-.912.195-1.22.582-.31.386-.465.884-.465 1.49 0 .61.155 1.095.464 1.455.31.36.716.522 1.222.522h15.385c4.05 0 7.198 1.095 9.448 3.288 2.248 2.19 3.374 5.65 3.374 10.37v.928c0 4.72-1.126 8.192-3.373 10.41-2.25 2.22-5.397 3.33-9.447 3.33H12.06c-2.052 0-3.698 1.676-3.698 3.727v23.674c0 .62.224 1.084.674 1.39.45.31.928.464 1.435.464.56 0 1.055-.152 1.477-.463.42-.306.633-.77.633-1.39V37.265h12.823c2.362 0 4.582-.323 6.663-.97 2.08-.645 3.895-1.67 5.443-3.076 1.545-1.405 2.753-3.232 3.625-5.48.872-2.25 1.31-4.974 1.31-8.18v-.927c0-3.205-.438-5.93-1.31-8.18" fill="#2B5DA4"/><path d="M2.952 0C2.165 0 1.476.31.886.926.296 1.546 0 2.276 0 3.116c0 .96.295 1.73.886 2.32.59.59 1.28.885 2.066.885.845 0 1.576-.294 2.194-.883.618-.59.927-1.36.927-2.32 0-.84-.31-1.57-.927-2.19C4.528.308 3.796 0 2.952 0" fill="#DF4B63"/></g></svg>
